<?xml version="1.0" encoding="UTF-8" standalone="no"?>
<!DOCTYPE svg PUBLIC "-//W3C//DTD SVG 1.1//EN" "http://www.w3.org/Graphics/SVG/1.1/DTD/svg11.dtd">
<svg width="100%" height="100%" viewBox="0 0 1024 1024" version="1.1" xmlns="http://www.w3.org/2000/svg" xmlns:xlink="http://www.w3.org/1999/xlink" xml:space="preserve" xmlns:serif="http://www.serif.com/" style="fill-rule:evenodd;clip-rule:evenodd;stroke-linejoin:round;stroke-miterlimit:2;">
    <g transform="matrix(1.47754,0,0,1.66667,-28.6525,-40)">
        <ellipse cx="364.56" cy="330" rx="304.56" ry="270" style="fill:white;"/>
    </g>
    <g transform="matrix(1.03087,0,0,1.03087,-13.745,-13.745)">
        <path d="M510,13.333C235.882,13.333 13.333,235.882 13.333,510C13.333,784.118 235.882,1006.67 510,1006.67C784.118,1006.67 1006.67,784.118 1006.67,510C1006.67,235.882 784.118,13.333 510,13.333ZM510,146.667C710.529,146.667 873.333,309.471 873.333,510C873.333,710.529 710.529,873.333 510,873.333C309.471,873.333 146.667,710.529 146.667,510C146.667,309.471 309.471,146.667 510,146.667ZM433.334,509.681L433.333,510C433.333,546.794 463.206,576.667 500,576.667L729.362,576.667C766.156,576.667 796.029,546.794 796.029,510C796.029,473.206 766.156,443.333 729.362,443.333L566.667,443.333L566.667,280C566.667,243.206 536.794,213.333 500,213.333C463.206,213.333 433.333,243.206 433.333,280L433.333,509.362L433.334,509.681Z"/>
    </g>
</svg>
